<?xml version="1.0" encoding="UTF-8"?>
<!-- Generated by Pixelmator Pro 2.4.6 -->
<svg width="736" height="849" viewBox="0 0 736 849" xmlns="http://www.w3.org/2000/svg" xmlns:xlink="http://www.w3.org/1999/xlink">
    <path id="hexoutside" fill="#cfe2f3" fill-rule="evenodd" stroke="none" d="M 706.338013 196.450012 L 428.537994 36.049988 L 368.238007 1.25 L 307.937988 36.049988 L 30.1376 196.450012 L 0.837612 213.349976 L 0.837612 637.650024 L 30.1376 654.549988 L 311.338013 816.950012 L 368.238007 849.75 L 425.138 816.950012 L 706.338013 654.549988 L 735.638 637.650024 L 735.638 213.349976 Z"/>
    <path id="Path" fill="#674ea7" stroke="none" d="M 735.900024 637.400024 L 735.900024 213.099976 L 706.599976 196.200012 L 428.799988 35.799988 L 368.5 1 L 308.200012 35.799988 L 30.4 196.200012 L 1.1 213.099976 L 1 638 L 30 655 L 312 818 L 368 850 L 425.5 816.700012 L 706.799988 654.299988 L 735.900024 637.400024 Z M 30.4 621.5 L 30.4 231 L 368.5 35.799988 L 368.5 35.799988 L 706.599976 231 L 706.599976 621.400024 L 368.5 816.700012 L 30.4 621.5 Z"/>
    <path id="Line" fill="#646464" fill-rule="evenodd" stroke="none" d="M 484 965.000061 L 739.999878 965.000061"/>
    <path id="Path-copy-2" fill="#929292" fill-rule="evenodd" stroke="none" d="M 707 429.333862 C 681.257996 444.298157 636.504639 472.727753 610 472.286407 C 549.239319 471.274384 448.684082 360.673035 387.560272 354.191132 C 321.342438 347.169189 302.237305 385.417297 244.301483 376.138947 C 192.299683 367.811005 85.800224 309.048645 30 279 L 30 622 L 367.999969 817 L 707 622 L 707 429.333862 Z"/>
    <g id="Group">
        <text id="EWS" xml:space="preserve" x="63" y="541" font-family="Arial Rounded MT Bold" font-size="80" fill="#ffffff">EWS</text>
        <g id="Group-copy">
            <path id="path1" fill="none" stroke="#ffffff" stroke-width="8" stroke-linecap="round" stroke-linejoin="round" d="M 289.455902 562.352661 C 289.455902 562.352661 301.770203 583.093201 320 585"/>
            <path id="path2" fill="none" stroke="#ffffff" stroke-width="5" stroke-linecap="round" stroke-linejoin="round" stroke-dasharray="0.1 10" stroke-dashoffset="0" d="M 288.000214 533 L 288.999878 561"/>
            <path id="path3" fill="none" stroke="#ffffff" stroke-width="8" stroke-linecap="round" stroke-linejoin="round" d="M 260.00293 515.324341 C 260.00293 515.324341 281.673462 516.728882 288.030823 533.920349"/>
        </g>
        <text id="methods" xml:space="preserve" x="327" y="606" font-family="Arial Rounded MT Bold" font-size="80" fill="#ffffff">methods</text>
    </g>
    <g id="g1">
        <g id="New-Group-copy-8">
            <path id="Location-Arrow" fill="none" stroke="#000000" stroke-width="5.38217" stroke-linecap="round" stroke-linejoin="round" d="M 533.472717 436.552338 L 542.719727 433.698212 C 542.885193 433.647858 542.942749 433.539948 542.892395 433.374481 L 540.122986 424.183105 C 540.007141 423.80249 539.988831 423.460052 540.067993 423.155731 C 540.147156 422.85141 540.296143 422.598175 540.514832 422.396027 C 540.733582 422.193878 540.990051 422.063873 541.284302 422.005981 C 541.578552 421.94809 541.887024 421.973999 542.209656 422.08374 C 542.532349 422.193512 542.833069 422.409363 543.111816 422.731323 L 558.634033 440.056274 C 558.990112 440.454163 559.197266 440.845367 559.255493 441.229889 C 559.313782 441.614471 559.252747 441.956177 559.07251 442.255096 C 558.892273 442.554016 558.616882 442.777893 558.246399 442.926788 C 557.875854 443.075684 557.43573 443.114685 556.926025 443.043793 L 533.772461 439.810364 C 533.393677 439.753845 533.079651 439.62793 532.830383 439.432556 C 532.581116 439.237213 532.403381 439.002014 532.297119 438.72702 C 532.190796 438.451996 532.159302 438.170074 532.202454 437.881226 C 532.245667 437.592377 532.370972 437.328247 532.578308 437.088867 C 532.785767 436.849518 533.083862 436.670654 533.472717 436.552338 Z"/>
            <path id="path5" fill="none" stroke="#000000" stroke-width="5.38217" stroke-linecap="round" stroke-linejoin="round" stroke-dasharray="0.1 10.76434" stroke-dashoffset="0" d="M 439.379456 365.110992 L 538.447449 430.752258"/>
        </g>
        <g id="New-Group-copy-7">
            <path id="path6" fill="none" stroke="#000000" stroke-width="5.38217" stroke-linecap="round" stroke-linejoin="round" d="M 322.118652 377.214966 L 314.921692 370.745331 C 314.792603 370.630219 314.785614 370.508118 314.900696 370.379028 L 321.270142 363.196991 C 321.534912 362.900055 321.69516 362.596863 321.750977 362.287415 C 321.806732 361.977966 321.777771 361.685608 321.664001 361.41037 C 321.550232 361.135101 321.371948 360.909515 321.129089 360.733521 C 320.886292 360.557526 320.595398 360.451691 320.25647 360.415955 C 319.917511 360.380249 319.553986 360.450073 319.165894 360.625427 L 297.808136 369.841614 C 297.317993 370.053436 296.96582 370.321655 296.751678 370.646301 C 296.537476 370.970978 296.449524 371.306763 296.487762 371.653717 C 296.526001 372.000671 296.682068 372.319427 296.955963 372.609985 C 297.229858 372.900574 297.613007 373.120605 298.105469 373.27002 L 320.47995 380.046783 C 320.847504 380.154358 321.185394 380.171783 321.493622 380.098969 C 321.801819 380.026215 322.061859 379.887299 322.273682 379.68222 C 322.485504 379.477142 322.632385 379.234467 322.714355 378.954132 C 322.796326 378.673798 322.793365 378.38147 322.705505 378.077179 C 322.617645 377.772888 322.422028 377.485504 322.118652 377.214966 Z"/>
            <path id="path7" fill="none" stroke="#000000" stroke-width="5.38217" stroke-linecap="round" stroke-linejoin="round" stroke-dasharray="0.1 10.76434" stroke-dashoffset="0" d="M 356.645691 360.434631 L 320.035645 369.863129"/>
            <g id="New-Group-copy-6">
                <path id="path8" fill="none" stroke="#000000" stroke-width="5.38217" stroke-linecap="round" stroke-linejoin="round" d="M 320.623322 350.343628 L 323.63736 341.147522 C 323.691895 340.983398 323.637085 340.874054 323.472931 340.819519 L 314.371155 337.768494 C 313.993622 337.643066 313.703552 337.460114 313.500946 337.219666 C 313.298309 336.979187 313.177704 336.711304 313.13913 336.416016 C 313.100525 336.120667 313.142639 335.836243 313.265442 335.562622 C 313.388214 335.289001 313.587616 335.052246 313.863617 334.852295 C 314.139648 334.652405 314.489594 334.531738 314.913422 334.490295 L 338.022583 331.833313 C 338.553101 331.772583 338.992096 331.82959 339.339569 332.004211 C 339.687073 332.178894 339.930725 332.426147 340.070526 332.746033 C 340.210327 333.065857 340.233917 333.419983 340.141327 333.808411 C 340.048737 334.196838 339.826263 334.578552 339.473846 334.953613 L 323.455505 351.981659 C 323.190521 352.258148 322.906281 352.44165 322.602814 352.532196 C 322.299347 352.622772 322.004669 352.631958 321.718811 352.559784 C 321.432953 352.487579 321.184631 352.350433 320.973846 352.148254 C 320.763062 351.946106 320.619904 351.691223 320.544373 351.383636 C 320.468872 351.07605 320.495178 350.72937 320.623322 350.343628 Z"/>
                <path id="path9" fill="none" stroke="#000000" stroke-width="5.38217" stroke-linecap="round" stroke-linejoin="round" stroke-dasharray="0.1 10.76434" stroke-dashoffset="0" d="M 282.327148 353.007935 L 318.764313 342.931976"/>
            </g>
        </g>
        <g id="New-Group-copy">
            <g id="g2">
                <path id="path10" fill="none" stroke="#000000" stroke-width="5.38217" stroke-linecap="round" stroke-linejoin="round" d="M 177.014069 346.366394 L 185.303223 341.372131 C 185.451721 341.283478 185.481644 341.164886 185.39299 341.016388 L 180.494324 332.760803 C 180.29039 332.41925 180.190262 332.091248 180.193909 331.776794 C 180.197571 331.462402 180.281235 331.180786 180.444931 330.931946 C 180.608612 330.683167 180.826309 330.495239 181.098007 330.368286 C 181.36969 330.241333 181.675339 330.192322 182.014908 330.221252 C 182.354492 330.250183 182.698303 330.38739 183.046295 330.632874 L 202.279541 343.716248 C 202.720871 344.016815 203.016052 344.34671 203.165054 344.705963 C 203.314072 345.065216 203.337051 345.411591 203.233978 345.745056 C 203.13092 346.078552 202.917465 346.362091 202.593628 346.595734 C 202.269775 346.829376 201.851974 346.973083 201.340164 347.026855 L 178.088547 349.456696 C 177.707291 349.49292 177.372208 349.446228 177.083267 349.316528 C 176.794342 349.18689 176.565216 349.001343 176.395935 348.759979 C 176.226624 348.518585 176.12822 348.252533 176.100662 347.961761 C 176.07312 347.671021 176.13121 347.384521 176.274948 347.102264 C 176.418701 346.820068 176.66507 346.574768 177.014069 346.366394 Z"/>
                <path id="path11" fill="none" stroke="#000000" stroke-width="5.38217" stroke-linecap="round" stroke-linejoin="round" stroke-dasharray="0.1 10.76434" stroke-dashoffset="0" d="M 127.375359 317.339294 L 180.447845 339.540161"/>
            </g>
            <g id="g3">
                <path id="path12" fill="none" stroke="#000000" stroke-width="5.38217" stroke-linecap="round" stroke-linejoin="round" d="M 150.415085 345.096619 L 142.125931 350.090881 C 141.977432 350.179535 141.94751 350.298126 142.036163 350.446625 L 146.93483 358.702209 C 147.138763 359.043793 147.238892 359.371765 147.235245 359.686188 C 147.231583 360.00061 147.147919 360.282227 146.984222 360.531067 C 146.820541 360.779877 146.602844 360.967743 146.331146 361.094727 C 146.059464 361.22168 145.753815 361.270691 145.414246 361.24176 C 145.074661 361.21286 144.73085 361.075653 144.382858 360.83017 L 125.149612 347.746765 C 124.708282 347.446198 124.413109 347.116302 124.264099 346.75705 C 124.115082 346.397797 124.09211 346.051422 124.195175 345.717957 C 124.298241 345.38446 124.511696 345.100922 124.835533 344.867279 C 125.159378 344.633636 125.577179 344.489929 126.088997 344.436157 L 149.340607 342.006317 C 149.721863 341.970093 150.056946 342.016785 150.345886 342.146484 C 150.634811 342.276123 150.863937 342.46167 151.033218 342.703033 C 151.20253 342.944427 151.300934 343.21048 151.328491 343.501251 C 151.356033 343.791992 151.297943 344.078491 151.154205 344.360748 C 151.010452 344.642944 150.764084 344.888245 150.415085 345.096619 Z"/>
                <path id="path13" fill="none" stroke="#000000" stroke-width="5.38217" stroke-linecap="round" stroke-linejoin="round" stroke-dasharray="0.1 10.76434" stroke-dashoffset="0" d="M 200.053787 374.123688 L 146.981308 351.922852"/>
            </g>
        </g>
        <g id="balls">
            <path id="Ellipse-copy-3" fill="none" stroke="#000000" stroke-width="6.433472" stroke-linecap="round" stroke-linejoin="round" d="M 431.352448 341.997253 C 431.352448 321.011963 414.340515 304 393.355225 304 C 372.369904 304 355.357971 321.011963 355.357971 341.997253 C 355.357971 362.982544 372.369904 379.994476 393.355225 379.994476 C 414.340515 379.994476 431.352448 362.982544 431.352448 341.997253 Z"/>
            <path id="Ellipse-copy-4" fill="none" stroke="#000000" stroke-width="6.433472" stroke-linecap="round" stroke-linejoin="round" d="M 129.834183 304.155945 C 129.834183 283.169128 112.820999 266.155945 91.834183 266.155945 C 70.847359 266.155945 53.834179 283.169128 53.834179 304.155945 C 53.834179 325.142761 70.847359 342.155945 91.834183 342.155945 C 112.820999 342.155945 129.834183 325.142761 129.834183 304.155945 Z"/>
            <path id="Path-copy-3" fill="#ff8ec6" fill-rule="evenodd" stroke="#000000" stroke-width="6.433472" stroke-linecap="round" stroke-linejoin="round" d="M 282.484497 367.488403 C 282.484497 346.501587 265.471313 329.488403 244.484497 329.488403 C 223.497681 329.488403 206.484497 346.501587 206.484497 367.488403 C 206.484497 388.47522 223.497681 405.488403 244.484497 405.488403 C 265.471313 405.488403 282.484497 388.47522 282.484497 367.488403 Z"/>
            <path id="path14" fill="#ff8ec6" fill-opacity="0.305395" fill-rule="evenodd" stroke="#000000" stroke-width="6.433472" stroke-linecap="round" stroke-linejoin="round" d="M 643.55835 455.141327 C 643.55835 434.15451 626.545166 417.141327 605.55835 417.141327 C 584.571533 417.141327 567.55835 434.15451 567.55835 455.141327 C 567.55835 476.128143 584.571533 493.141327 605.55835 493.141327 C 626.545166 493.141327 643.55835 476.128143 643.55835 455.141327 Z"/>
        </g>
        <path id="Path-copy" fill="none" stroke="#000000" stroke-width="11.791787" stroke-linecap="round" stroke-linejoin="round" d="M 683 477.452362 C 655.088196 493.746094 634.204224 502.393219 605.465454 501.912659 C 539.583374 500.81073 454.956818 394.603668 388.680969 387.546021 C 316.881714 379.900238 296.16626 421.546051 233.347107 411.443481 C 176.962112 402.375732 114.503555 369.131592 54 336.413696"/>
    </g>
</svg>
